<svg width="28" height="28" viewBox="0 0 28 28" fill="none" xmlns="http://www.w3.org/2000/svg">
<path d="M14 1.55556C11.5387 1.55556 9.13271 2.28541 7.08623 3.65282C5.03975 5.02024 3.44472 6.96379 2.50282 9.23772C1.56093 11.5116 1.31449 14.0138 1.79466 16.4278C2.27484 18.8418 3.46005 21.0592 5.20044 22.7996C6.94083 24.5399 9.15822 25.7252 11.5722 26.2053C13.9862 26.6855 16.4883 26.4391 18.7623 25.4972C21.0362 24.5553 22.9798 22.9602 24.3472 20.9138C25.7146 18.8673 26.4444 16.4613 26.4444 14C26.4444 10.6995 25.1333 7.53424 22.7995 5.20045C20.4658 2.86666 17.3005 1.55556 14 1.55556V1.55556ZM20.2222 18.7444C20.4285 18.9507 20.5444 19.2305 20.5444 19.5222C20.5444 19.8139 20.4285 20.0937 20.2222 20.3C20.0159 20.5063 19.7362 20.6222 19.4444 20.6222C19.1527 20.6222 18.8729 20.5063 18.6667 20.3L14 15.6333L9.33333 20.3156C9.23119 20.4177 9.10993 20.4987 8.97648 20.554C8.84303 20.6093 8.69999 20.6377 8.55555 20.6377C8.4111 20.6377 8.26807 20.6093 8.13462 20.554C8.00117 20.4987 7.87991 20.4177 7.77777 20.3156C7.67563 20.2134 7.59461 20.0922 7.53933 19.9587C7.48405 19.8253 7.4556 19.6822 7.4556 19.5378C7.4556 19.3933 7.48405 19.2503 7.53933 19.1168C7.59461 18.9834 7.67563 18.8621 7.77777 18.76L12.4444 14.0622L7.64555 9.22445C7.43927 9.01817 7.32338 8.73839 7.32338 8.44667C7.32338 8.15494 7.43927 7.87517 7.64555 7.66889C7.85183 7.46261 8.1316 7.34672 8.42333 7.34672C8.71505 7.34672 8.99482 7.46261 9.2011 7.66889L14 12.5222L18.7989 7.72334C18.901 7.6212 19.0223 7.54017 19.1557 7.4849C19.2892 7.42962 19.4322 7.40117 19.5767 7.40117C19.7211 7.40117 19.8641 7.42962 19.9976 7.4849C20.131 7.54017 20.2523 7.6212 20.3544 7.72334C20.4566 7.82547 20.5376 7.94673 20.5929 8.08018C20.6482 8.21363 20.6766 8.35667 20.6766 8.50111C20.6766 8.64556 20.6482 8.78859 20.5929 8.92204C20.5376 9.05549 20.4566 9.17675 20.3544 9.27889L15.5555 14.0622L20.2222 18.7444Z" fill="#495159"/>
</svg>
